<mxfile host="app.diagrams.net" modified="2024-03-26T13:54:17.356Z" agent="Mozilla/5.0 (Windows NT 10.0; Win64; x64) AppleWebKit/537.36 (KHTML, like Gecko) Chrome/121.0.0.0 Safari/537.36 OPR/107.0.0.0" version="24.0.7" etag="5P79vcA2axgNK1k4tfac" type="github">
  <diagram name="Page-1" id="U-ADLFAoI3-rypVU0R8v">
    <mxGraphModel>
      <root>
        <mxCell id="0" />
        <mxCell id="1" parent="0" />
      </root>
    </mxGraphModel>
  </diagram>
</mxfile>
